<?xml version="1.0" encoding="utf-8"?>
<!-- Generator: Adobe Illustrator 16.0.0, SVG Export Plug-In . SVG Version: 6.00 Build 0)  -->
<!DOCTYPE svg PUBLIC "-//W3C//DTD SVG 1.1//EN" "http://www.w3.org/Graphics/SVG/1.1/DTD/svg11.dtd">
<svg version="1.1" id="Layer_1" xmlns="http://www.w3.org/2000/svg" xmlns:xlink="http://www.w3.org/1999/xlink" x="0px" y="0px"
	 width="1024px" height="768px" viewBox="0 0 1024 768" enable-background="new 0 0 1024 768" xml:space="preserve">
<polygon fill="#CCCCCC" points="196.192,122 56,122 56,263.5 172,263.5 "/>
<polygon fill="#999999" points="295,284.5 302.169,122 196.192,122 172,263.5 172,272.5 "/>
<path fill="#CCCCCC" d="M295,284.5"/>
<polygon fill="#666666" points="399,301.5 414.236,122 302.169,122 295,284.5 295,294 "/>
<polygon fill="#999999" points="606,236.75 603.295,122 414.236,122 404.731,233.979 529.5,240.5 "/>
<polygon fill="#CCCCCC" points="603.295,122 606,236.75 609,259 656,268.5 760,268.5 760,122 "/>
<polygon fill="#999999" points="656,268.5 644,396 760,396 760,268.5 "/>
<polygon fill="#666666" points="644,396 656,268.5 609,259 606,236.75 529.5,240.5 526.5,386.5 "/>
<polygon fill="#CCCCCC" points="527.615,332.25 529.5,240.5 404.731,233.979 399,301.5 404.731,319 "/>
<polygon fill="#666666" points="246,368.667 259.208,281.008 172,272.5 172,263.5 89.934,263.5 102,374 "/>
<polygon fill="#999999" points="109.425,373.725 102,374 89.934,263.5 56,263.5 56,407.708 104.667,403.333 "/>
<polygon fill="#CCCCCC" points="259.208,539.333 230.975,369.223 109.425,373.725 104.667,403.333 80.34,405.52 95.333,547.333 "/>
<polygon fill="#666666" points="98.123,547.197 95.333,547.333 80.34,405.52 56,407.708 56,554.25 98,547.333 "/>
<polygon fill="#CCCCCC" points="580,564 674.667,558 681.068,396 644,396 548.13,388.249 551.333,559.333 "/>
<polygon fill="#666666" points="695.333,564 760,560.306 760,396 681.068,396 674.815,554.249 674.815,554.25 "/>
</svg>
